<?xml version="1.0" encoding="UTF-8" standalone="no"?><!DOCTYPE svg PUBLIC "-//W3C//DTD SVG 1.1//EN" "http://www.w3.org/Graphics/SVG/1.1/DTD/svg11.dtd"><svg width="100%" height="100%" viewBox="0 0 1796 1592" version="1.1" xmlns="http://www.w3.org/2000/svg" xmlns:xlink="http://www.w3.org/1999/xlink" xml:space="preserve" xmlns:serif="http://www.serif.com/" style="fill-rule:evenodd;clip-rule:evenodd;stroke-linejoin:round;stroke-miterlimit:2;"><g><path d="M76.594,0l0,672.211l173.344,0c93.726,0 167.296,-9.07 245.906,-64.5c88.687,-62.484 135.047,-159.234 135.047,-271.102c0,-111.867 -47.368,-209.625 -129,-271.101c-74.578,-55.43 -156.211,-65.508 -249.938,-65.508l-175.359,0Zm131.015,112.875l40.313,0c44.344,0 110.859,4.031 165.281,44.344c53.414,40.312 82.641,108.843 82.641,179.39c0,71.555 -30.235,140.086 -83.649,178.383c-58.453,42.328 -131.015,44.344 -164.273,44.344l-40.313,0l0,-446.461Z" style="fill:#fff;fill-rule:nonzero;"/><path d="M1049.13,532.125c-20.156,35.273 -55.43,57.445 -101.789,57.445c-47.367,0 -74.578,-23.179 -87.68,-41.32c-14.109,-19.148 -21.164,-47.367 -21.164,-73.57l326.531,0l0,-10.078c0,-47.368 -6.047,-115.899 -52.406,-171.329c-30.234,-36.281 -81.633,-71.554 -170.32,-71.554c-52.407,0 -112.875,11.086 -164.274,61.476c-31.242,31.242 -66.515,84.657 -66.515,171.328c0,68.532 20.156,124.969 68.531,170.321c43.336,41.32 96.75,61.476 167.297,61.476c152.179,0 201.562,-103.804 214.664,-136.054l-112.875,-18.141Zm-206.602,-136.055c10.078,-58.453 57.446,-87.679 102.797,-87.679c45.352,0 93.727,28.218 103.805,87.679l-206.602,0Z" style="fill:#fff;fill-rule:nonzero;"/><path d="M1558.08,268.078c-55.43,-42.328 -106.828,-46.359 -139.078,-46.359c-35.273,0 -79.617,4.031 -113.883,31.242c-25.195,21.164 -45.351,56.437 -45.351,98.766c0,35.273 13.101,62.484 33.257,83.648c26.204,27.211 62.485,41.32 93.727,52.406l28.219,10.078c16.125,6.047 38.297,17.133 38.297,44.344c0,30.234 -26.204,47.367 -60.469,47.367c-36.281,0 -72.563,-22.172 -96.75,-50.39l-64.5,74.578c27.211,29.226 78.609,72.562 169.312,72.562c53.414,0 95.743,-14.109 131.016,-46.359c35.273,-32.25 48.375,-71.555 48.375,-110.859c0,-28.219 -9.07,-54.422 -22.172,-72.563c-25.195,-34.266 -76.594,-51.398 -110.859,-62.484l-29.227,-9.071c-34.265,-11.086 -39.305,-28.218 -39.305,-39.304c0,-21.164 18.141,-35.274 47.368,-35.274c13.101,0 42.328,2.016 71.554,29.227l60.469,-71.555Z" style="fill:#fff;fill-rule:nonzero;"/><rect x="0" y="1414.13" width="503.906" height="104.813" style="fill:#ff11c4;fill-rule:nonzero;"/><path d="M562.359,923.328l0,436.383l122.953,0l0,-436.383l-122.953,0Zm-12.093,-184.43c0,40.313 33.257,73.571 73.57,73.571c40.312,0 73.57,-33.258 73.57,-73.571c0,-40.312 -33.258,-73.57 -73.57,-73.57c-40.313,0 -73.57,33.258 -73.57,73.57Z" style="fill:#fff;fill-rule:nonzero;"/><path d="M1134.8,979.766c-17.133,-26.204 -55.43,-70.547 -137.063,-70.547c-58.453,0 -111.867,21.164 -150.164,58.453c-42.328,41.32 -67.523,104.812 -67.523,173.344c0,84.656 37.289,141.093 69.539,173.343c42.328,41.321 92.719,59.461 151.172,59.461c33.258,0 91.711,-8.062 134.039,-72.562l0,61.476c0,35.274 -3.024,69.539 -31.242,96.75c-16.125,15.118 -39.305,27.211 -74.578,27.211c-17.133,0 -50.391,-1.008 -74.579,-23.179c-14.109,-12.094 -25.195,-32.25 -30.234,-52.407l-133.031,0c10.078,49.383 36.281,100.782 70.547,130.008c28.218,25.195 78.609,50.391 163.265,50.391c89.696,0 142.102,-31.242 172.336,-61.477c54.422,-54.422 60.469,-123.961 60.469,-190.476l0,-416.227l-122.953,0l0,56.438Zm-106.828,38.296c33.258,0 61.476,10.079 85.664,35.274c17.133,18.141 35.273,46.359 35.273,87.68c0,35.273 -14.109,70.546 -39.304,93.726c-21.165,19.149 -51.399,30.235 -81.633,30.235c-29.227,0 -62.485,-10.079 -88.688,-38.297c-18.14,-19.149 -32.25,-47.368 -32.25,-85.664c0,-45.352 19.149,-74.579 39.305,-92.719c15.117,-14.11 42.328,-30.235 81.633,-30.235Z" style="fill:#fff;fill-rule:nonzero;"/><path d="M1374.66,1359.71l122.953,0l0,-222.727c0,-25.195 1.008,-56.437 19.149,-84.656c18.14,-27.211 43.336,-38.297 75.586,-38.297c12.094,0 38.297,2.016 57.445,22.172c22.172,23.18 23.18,61.477 23.18,85.664l0,237.844l122.953,0l0,-274.125c0,-42.328 -4.031,-85.664 -34.266,-122.953c-34.265,-42.328 -90.703,-53.414 -129,-53.414c-70.547,0 -111.867,38.297 -135.047,70.547l0,-56.438l-122.953,0l0,436.383Z" style="fill:#fff;fill-rule:nonzero;"/></g></svg>